<svg xmlns="http://www.w3.org/2000/svg" viewBox="0 0 661.26 299.66"><defs><style>.a,.d,.e,.g,.h,.i,.k,.l,.m,.n{fill:none;}.a{stroke:#1d1d1b;stroke-width:1.5px;}.a,.o,.p,.q,.r,.s,.t{stroke-miterlimit:10;}.b{fill:#1d1d1b;}.c{fill:#010101;}.d,.e{stroke:#fab724;}.d{stroke-width:2px;}.e{stroke-width:2px;}.f,.q{fill:#1075bc;}.f,.j{fill-opacity:0.25;}.g,.l,.r{stroke:#ec6742;}.g,.h{stroke-dasharray:5 4 10 4;}.h,.i,.k,.n,.q{stroke:#1075bc;}.i{stroke-dasharray:5 4 10 2;}.j,.r{fill:#ec6742;}.k,.l{stroke-dasharray:1 4 10 4;}.m,.o,.p,.s,.t{stroke:#000;}.o{stroke-width:0.14px;}.p,.q,.r{stroke-width:0.1px;}.s{stroke-width:0.16px;}.t{stroke-width:0.11px;}</style></defs><path class="a" d="M370.58,379.71C400,391.61,521.34,391,560,381.2" transform="translate(-82.04 -141.73)"/><polygon class="b" points="487.88 235.67 475.97 246.53 477.19 239.59 471.77 235.09 487.88 235.67"/><path class="c" d="M279.59,421.06l0-.14c0-.06,0-.2.09-.4a3.69,3.69,0,0,1,.18-.56q.11-.25.27-.6a2,2,0,0,1,.36-.54,3.18,3.18,0,0,1,.47-.4.81.81,0,0,1,.6-.16,1.92,1.92,0,0,1,.92.21,2.26,2.26,0,0,1,.56.4.73.73,0,0,1,.2.36c0,.08,0,.11.06.11a.61.61,0,0,0,.14-.12,2.67,2.67,0,0,1,2-1h.05a1.42,1.42,0,0,1,1.31.75,1.83,1.83,0,0,1,.14.67,1.46,1.46,0,0,1-.23.86,1.18,1.18,0,0,1-.47.42.94.94,0,0,1-.46.07.8.8,0,0,1-.58-.2.67.67,0,0,1-.21-.52,1.17,1.17,0,0,1,1-1.16,1.31,1.31,0,0,0-.65-.23,2.93,2.93,0,0,0-2.14,1.93c-.06.21-.26,1-.61,2.41-.41,1.69-.65,2.59-.71,2.7a.79.79,0,0,1-.78.48.65.65,0,0,1-.38-.1.72.72,0,0,1-.19-.22.26.26,0,0,1,0-.18q0-.24.72-3.12a29.6,29.6,0,0,0,.73-3.2c0-.47-.16-.7-.47-.7s-.47.16-.65.5a4.94,4.94,0,0,0-.44,1.11,4.92,4.92,0,0,1-.2.65.7.7,0,0,1-.29,0h-.25C279.63,421.15,279.59,421.1,279.59,421.06Z" transform="translate(-82.04 -141.73)"/><path class="c" d="M283,415.7a1.18,1.18,0,0,0-.5.11,3.7,3.7,0,0,0-.37.2,3.5,3.5,0,0,0-.36.35l-.25-.22-.26-.2.22-.27.47-.55a4.35,4.35,0,0,1,.38-.38,1.66,1.66,0,0,1,.82-.25,3.53,3.53,0,0,1,1.19.33,3.72,3.72,0,0,0,1.21.32,1.09,1.09,0,0,0,.51-.11,1.91,1.91,0,0,0,.36-.19,2.2,2.2,0,0,0,.36-.35l.26.22.25.2a3.82,3.82,0,0,1-1.3,1.32,1.32,1.32,0,0,1-.56.13,3.49,3.49,0,0,1-1.18-.33A3.55,3.55,0,0,0,283,415.7Z" transform="translate(-82.04 -141.73)"/><path class="c" d="M290.69,421.57l-.16.07-.51.13a7.36,7.36,0,0,1-.75.09H289v-.59h.24a4.3,4.3,0,0,0,1.12-.19,3.41,3.41,0,0,0,.71-.31,4.15,4.15,0,0,0,.36-.28s.07,0,.16,0a.33.33,0,0,1,.21.07v3.83l0,3.84a.4.4,0,0,0,.15.11,1.23,1.23,0,0,0,.31.06l.79,0h.33V429h-.14c-.18,0-.86,0-2,0s-1.83,0-2,0h-.15v-.59h1.13l.21,0,.1,0,.08-.06s.07-.06.07-.05Z" transform="translate(-82.04 -141.73)"/><path class="c" d="M301.31,420a.41.41,0,0,1,.26-.37h11.52c.19.1.28.22.28.37s-.09.24-.26.34l-5.75,0H301.6A.36.36,0,0,1,301.31,420Zm0,3.51a.37.37,0,0,1,.29-.37h11.51a.5.5,0,0,1,.26.37.4.4,0,0,1-.28.36H301.57A.41.41,0,0,1,301.31,423.49Z" transform="translate(-82.04 -141.73)"/><path class="c" d="M319.79,421.06s0-.08,0-.14.05-.2.09-.4a3.69,3.69,0,0,1,.18-.56l.28-.6a2,2,0,0,1,.36-.54,3.18,3.18,0,0,1,.47-.4.81.81,0,0,1,.6-.16,2,2,0,0,1,.92.21,2.47,2.47,0,0,1,.56.4.73.73,0,0,1,.2.36c0,.08,0,.11,0,.11s.06,0,.15-.12a2.67,2.67,0,0,1,2-1h.05a1.41,1.41,0,0,1,1.3.75,1.66,1.66,0,0,1,.15.67,1.39,1.39,0,0,1-.24.86,1.06,1.06,0,0,1-.47.42.89.89,0,0,1-.45.07.8.8,0,0,1-.58-.2.68.68,0,0,1-.22-.52,1.17,1.17,0,0,1,1-1.16,1.34,1.34,0,0,0-.65-.23,2.33,2.33,0,0,0-1.87,1.33,2.65,2.65,0,0,0-.27.6c-.06.21-.26,1-.61,2.41-.41,1.69-.65,2.59-.71,2.7a.81.81,0,0,1-.78.48.63.63,0,0,1-.38-.1,1,1,0,0,1-.2-.22.25.25,0,0,1,0-.18q0-.24.72-3.12a31,31,0,0,0,.72-3.2c0-.47-.15-.7-.47-.7s-.47.16-.65.5a5.45,5.45,0,0,0-.43,1.11c-.11.39-.18.61-.2.65a.73.73,0,0,1-.29,0h-.25C319.82,421.15,319.79,421.1,319.79,421.06Z" transform="translate(-82.04 -141.73)"/><path class="c" d="M330.89,421.57l-.16.07c-.12,0-.29.08-.52.13a7.14,7.14,0,0,1-.74.09h-.24v-.59h.24a4.29,4.29,0,0,0,1.11-.19,3.56,3.56,0,0,0,.72-.31,4.15,4.15,0,0,0,.36-.28s.07,0,.15,0a.36.36,0,0,1,.22.07v7.67a.35.35,0,0,0,.16.11,1.22,1.22,0,0,0,.3.06l.8,0h.33V429h-.14c-.18,0-.86,0-2,0s-1.83,0-2,0h-.16v-.59h1.14l.21,0,.1,0,.08-.06s.06-.06.07-.05Z" transform="translate(-82.04 -141.73)"/><path class="c" d="M340.51,422v-.24a.38.38,0,0,1,.25-.36h5.41v-2.72l0-2.71c.12-.16.23-.24.34-.24a.38.38,0,0,1,.36.28v5.39h5.4a.43.43,0,0,1,.27.36.41.41,0,0,1-.27.36h-5.4v5.4c-.09.16-.2.25-.32.25h-.07a.36.36,0,0,1-.33-.25v-5.4h-5.41a.38.38,0,0,1-.25-.36Z" transform="translate(-82.04 -141.73)"/><path class="c" d="M369.89,404.83a.76.76,0,0,1-.6-.22.82.82,0,0,1-.2-.49,2.2,2.2,0,0,1,.11-.54,4.24,4.24,0,0,1,.38-.85,3.15,3.15,0,0,1,.81-.93,3.61,3.61,0,0,1,1.29-.63l.58-.09h.22c.39,0,.63,0,.7,0a3.39,3.39,0,0,1,1.9,1,4.54,4.54,0,0,1,1.09,1.68,6,6,0,0,1,.31,2,11.07,11.07,0,0,1-.86,3.93,8.83,8.83,0,0,1-2.11,3.38,4.66,4.66,0,0,1-3.24,1.36,3.24,3.24,0,0,1-3.28-3.08v-.2a5.5,5.5,0,0,1,1.58-3.82,4.74,4.74,0,0,1,3.49-1.71,2.21,2.21,0,0,1,1.66.56,2.66,2.66,0,0,1,.75,1.21l0-.2a11.07,11.07,0,0,0,.36-2.48,2.84,2.84,0,0,0-.74-2.24,2.52,2.52,0,0,0-1.68-.67,2.48,2.48,0,0,0-2.19,1.16c.49.07.74.31.74.72a1.18,1.18,0,0,1-1.12,1.16Zm4.12,3.65a2.31,2.31,0,0,0-.52-1.7,1.7,1.7,0,0,0-1.23-.5,2.8,2.8,0,0,0-2,.83,4.24,4.24,0,0,0-.71,1.07A13,13,0,0,0,369,410a8.78,8.78,0,0,0-.33,1.9c0,1.15.6,1.72,1.81,1.72l.33,0A3.19,3.19,0,0,0,373,412a8.28,8.28,0,0,0,.63-1.52A6.28,6.28,0,0,0,374,408.48Z" transform="translate(-82.04 -141.73)"/><path class="c" d="M376.86,408.83s0-.09,0-.15,0-.19.09-.4a4.09,4.09,0,0,1,.18-.56l.27-.59a2,2,0,0,1,.37-.55,5.11,5.11,0,0,1,.47-.4.84.84,0,0,1,.59-.16,1.88,1.88,0,0,1,.93.22,2.19,2.19,0,0,1,.56.4.82.82,0,0,1,.2.36c0,.07,0,.11.05.11a.67.67,0,0,0,.15-.13,2.66,2.66,0,0,1,2-.94h.05a1.42,1.42,0,0,1,1.3.74,1.66,1.66,0,0,1,.15.67,1.45,1.45,0,0,1-.24.87,1,1,0,0,1-.92.49.83.83,0,0,1-.58-.2.7.7,0,0,1-.22-.53c0-.57.34-1,1-1.15a1.4,1.4,0,0,0-.66-.24A2.35,2.35,0,0,0,380.8,408a2.3,2.3,0,0,0-.27.6c-.06.2-.27,1-.62,2.4-.41,1.69-.64,2.59-.7,2.7a.81.81,0,0,1-.78.49.63.63,0,0,1-.38-.11.58.58,0,0,1-.2-.22.26.26,0,0,1,0-.18c0-.15.25-1.19.73-3.11a32.27,32.27,0,0,0,.72-3.2c0-.47-.15-.71-.47-.71s-.47.17-.65.51a4.84,4.84,0,0,0-.43,1.1,5.58,5.58,0,0,1-.2.65s-.12,0-.29,0H377A.29.29,0,0,1,376.86,408.83Z" transform="translate(-82.04 -141.73)"/><path class="c" d="M365.23,429.48a.76.76,0,0,1-.6-.22.92.92,0,0,1-.2-.49,2.2,2.2,0,0,1,.11-.54,4.9,4.9,0,0,1,.38-.85,3.19,3.19,0,0,1,.82-.93,3.41,3.41,0,0,1,1.28-.63l.58-.09h.22c.4,0,.63,0,.7,0a3.42,3.42,0,0,1,1.91,1,4.56,4.56,0,0,1,1.08,1.68,5.73,5.73,0,0,1,.31,2,11.07,11.07,0,0,1-.85,3.93,8.84,8.84,0,0,1-2.12,3.38,4.66,4.66,0,0,1-3.24,1.36,3,3,0,0,1-2.71-1.41,2.93,2.93,0,0,1-.56-1.67v-.2a5.49,5.49,0,0,1,1.57-3.82,4.79,4.79,0,0,1,3.49-1.72,2.25,2.25,0,0,1,1.67.57,2.73,2.73,0,0,1,.74,1.21l.05-.2a10.61,10.61,0,0,0,.37-2.48,2.84,2.84,0,0,0-.75-2.24,2.57,2.57,0,0,0-3.87.48c.5.08.74.32.74.73a1.12,1.12,0,0,1-.32.79A1.18,1.18,0,0,1,365.23,429.48Zm4.13,3.65a2.31,2.31,0,0,0-.53-1.7,1.71,1.71,0,0,0-1.23-.51,2.81,2.81,0,0,0-2,.84,4.14,4.14,0,0,0-.7,1.06,13.41,13.41,0,0,0-.6,1.85,8.78,8.78,0,0,0-.33,1.9c0,1.15.61,1.72,1.81,1.72l.33,0a3.17,3.17,0,0,0,2.24-1.63,8.46,8.46,0,0,0,.64-1.52A6.57,6.57,0,0,0,369.36,433.13Z" transform="translate(-82.04 -141.73)"/><path class="c" d="M372.42,435.83a5.34,5.34,0,0,1,1.37-3.48,4.07,4.07,0,0,1,3.1-1.66,2,2,0,0,1,1.62.89.92.92,0,0,1,.84-.55.63.63,0,0,1,.41.15.43.43,0,0,1,.18.36c0,.16-.22,1.12-.66,2.9s-.68,2.77-.69,3a1,1,0,0,0,.12.6.58.58,0,0,0,.38.16.88.88,0,0,0,.37-.16,4.12,4.12,0,0,0,.74-1.74c.07-.24.13-.37.18-.38a.53.53,0,0,1,.18,0h.07c.23,0,.35.06.35.16a2.72,2.72,0,0,1-.09.49,5.75,5.75,0,0,1-.37,1,3,3,0,0,1-.58.91,2,2,0,0,1-.57.38,2.44,2.44,0,0,1-.44,0,1.86,1.86,0,0,1-1-.27,1.34,1.34,0,0,1-.54-.56l-.11-.27s0,0-.07,0l-.08.07a3.18,3.18,0,0,1-2.17,1,2.46,2.46,0,0,1-1.75-.72A3.05,3.05,0,0,1,372.42,435.83Zm5.75-3.1a1.6,1.6,0,0,0-.09-.39,1.67,1.67,0,0,0-.42-.64,1.12,1.12,0,0,0-.83-.36,1.76,1.76,0,0,0-1.21.56,3.79,3.79,0,0,0-.91,1.47,14.67,14.67,0,0,0-.74,3v.19a.65.65,0,0,1,0,.22,1.5,1.5,0,0,0,.33,1.12,1.15,1.15,0,0,0,.78.33,2,2,0,0,0,1.36-.6,3,3,0,0,0,.79-.92c0-.05.19-.69.49-1.94S378.16,432.83,378.17,432.73Z" transform="translate(-82.04 -141.73)"/><path class="c" d="M384.72,434l-.17.06a2.64,2.64,0,0,1-.51.13,7,7,0,0,1-.75.09h-.24v-.59h.24a3.92,3.92,0,0,0,1.12-.19,2.59,2.59,0,0,0,.71-.31,2.14,2.14,0,0,0,.36-.28.24.24,0,0,1,.16,0,.34.34,0,0,1,.21.08v3.83l0,3.83a.64.64,0,0,0,.15.12,1.59,1.59,0,0,0,.31,0,7.17,7.17,0,0,0,.79,0h.33v.58h-.14c-.18,0-.85,0-2,0s-1.83,0-2,0h-.15v-.58h.81l.32,0a1.18,1.18,0,0,0,.21,0l.1,0,.08-.06c0-.05.07-.06.08-.06Z" transform="translate(-82.04 -141.73)"/><rect class="c" x="277.72" y="279.46" width="31.34" height="1.09"/><path class="c" d="M395,421.73a15,15,0,0,1,.18-2.37,18.45,18.45,0,0,1,.41-1.94,7.8,7.8,0,0,1,.67-1.59c.29-.52.52-.92.69-1.21a4.54,4.54,0,0,1,.76-.94c.34-.34.54-.55.6-.62a3.36,3.36,0,0,1,.45-.38h.31c.17,0,.25.06.25.16s-.1.17-.31.38a9.48,9.48,0,0,0-.74,1,12.59,12.59,0,0,0-.88,1.56,9.81,9.81,0,0,0-.76,2.5,19.74,19.74,0,0,0,0,7,11.53,11.53,0,0,0,.74,2.51,8.41,8.41,0,0,0,.88,1.56c.31.4.56.72.76,1a2.67,2.67,0,0,1,.31.38c0,.11-.09.16-.27.16h-.29l-.51-.43a8.92,8.92,0,0,1-2.47-3.84A14.78,14.78,0,0,1,395,421.73Z" transform="translate(-82.04 -141.73)"/><path class="c" d="M400.91,423.41a5.35,5.35,0,0,1,1.38-3.47,4.08,4.08,0,0,1,3.09-1.67,2.05,2.05,0,0,1,1.63.89.9.9,0,0,1,.83-.54.68.68,0,0,1,.42.14.45.45,0,0,1,.18.36c0,.16-.22,1.13-.67,2.9s-.67,2.78-.69,3a1,1,0,0,0,.13.6.52.52,0,0,0,.38.16.7.7,0,0,0,.36-.16,4.1,4.1,0,0,0,.75-1.74c.07-.24.13-.36.18-.38h.25c.23,0,.34.05.34.16a3.06,3.06,0,0,1-.09.49,5.52,5.52,0,0,1-.36,1,3,3,0,0,1-.58.91,1.83,1.83,0,0,1-.58.38,2.08,2.08,0,0,1-.43,0,1.76,1.76,0,0,1-1-.28,1.38,1.38,0,0,1-.55-.56l-.1-.27s0,0-.08,0l-.07.07a3.17,3.17,0,0,1-2.17,1,2.49,2.49,0,0,1-1.76-.73A3.08,3.08,0,0,1,400.91,423.41Zm5.76-3.09a1.65,1.65,0,0,0-.09-.4,1.72,1.72,0,0,0-.42-.63,1.14,1.14,0,0,0-.83-.36,1.7,1.7,0,0,0-1.21.56,3.75,3.75,0,0,0-.91,1.46,14.19,14.19,0,0,0-.74,3v.2a1.09,1.09,0,0,1,0,.22,1.51,1.51,0,0,0,.33,1.12,1.15,1.15,0,0,0,.78.32,2,2,0,0,0,1.35-.59,3.09,3.09,0,0,0,.8-.93s.19-.69.49-1.93S406.66,420.42,406.67,420.32Z" transform="translate(-82.04 -141.73)"/><path class="c" d="M413.21,421.57l-.16.07c-.12,0-.29.08-.52.13a7.14,7.14,0,0,1-.74.09h-.24v-.59h.24a4.29,4.29,0,0,0,1.11-.19,3.31,3.31,0,0,0,.72-.31,4.15,4.15,0,0,0,.36-.28s.07,0,.15,0a.36.36,0,0,1,.22.07v7.67a.35.35,0,0,0,.16.11,1.22,1.22,0,0,0,.3.06l.8,0H416V429h-.14c-.18,0-.86,0-2,0s-1.83,0-2,0h-.16v-.59h1.14l.21,0,.1,0,.08-.06s.06-.06.07-.05Z" transform="translate(-82.04 -141.73)"/><path class="c" d="M423.33,422v-.24a.39.39,0,0,1,.25-.36H434.1a.43.43,0,0,1,.27.36.41.41,0,0,1-.27.36H423.58a.39.39,0,0,1-.25-.36Z" transform="translate(-82.04 -141.73)"/><path class="c" d="M440.51,423.41a5.35,5.35,0,0,1,1.38-3.47,4.06,4.06,0,0,1,3.09-1.67,2.05,2.05,0,0,1,1.63.89.9.9,0,0,1,.83-.54.68.68,0,0,1,.42.14.45.45,0,0,1,.18.36c0,.16-.22,1.13-.67,2.9s-.68,2.78-.69,3a.91.91,0,0,0,.13.6.5.5,0,0,0,.38.16.7.7,0,0,0,.36-.16,4.12,4.12,0,0,0,.74-1.74c.08-.24.14-.36.18-.38h.26c.23,0,.34.05.34.16a3.06,3.06,0,0,1-.09.49,5.52,5.52,0,0,1-.36,1,3.25,3.25,0,0,1-.58.91,1.83,1.83,0,0,1-.58.38,2.16,2.16,0,0,1-.43,0,1.82,1.82,0,0,1-1-.28,1.42,1.42,0,0,1-.54-.56l-.11-.27s0,0-.07,0l-.07.07a3.17,3.17,0,0,1-2.17,1,2.49,2.49,0,0,1-1.76-.73A3,3,0,0,1,440.51,423.41Zm5.76-3.09a1.65,1.65,0,0,0-.09-.4,1.72,1.72,0,0,0-.42-.63,1.16,1.16,0,0,0-.83-.36,1.72,1.72,0,0,0-1.22.56,3.86,3.86,0,0,0-.9,1.46,14.19,14.19,0,0,0-.74,3v.2a1.09,1.09,0,0,1,0,.22,1.51,1.51,0,0,0,.33,1.12,1.14,1.14,0,0,0,.77.32,2,2,0,0,0,1.36-.59,3.09,3.09,0,0,0,.8-.93s.18-.69.49-1.93S446.25,420.42,446.27,420.32Z" transform="translate(-82.04 -141.73)"/><path class="c" d="M452.81,421.57l-.17.07-.51.13a7.14,7.14,0,0,1-.74.09h-.24v-.59h.24a4.29,4.29,0,0,0,1.11-.19,3.85,3.85,0,0,0,.72-.31,4.15,4.15,0,0,0,.36-.28s.07,0,.15,0a.36.36,0,0,1,.22.07v7.67a.35.35,0,0,0,.16.11,1.22,1.22,0,0,0,.3.06l.8,0h.33V429h-.14c-.18,0-.86,0-2,0s-1.83,0-2,0h-.15v-.59h1.14l.2,0,.11,0,.07-.06s.07-.06.08-.05Z" transform="translate(-82.04 -141.73)"/><path class="c" d="M457.48,428.52v-.32a.81.81,0,0,1,.21-.55.7.7,0,0,1,.55-.23.87.87,0,0,1,.64.32,1.83,1.83,0,0,1,.29,1.13,3.15,3.15,0,0,1-.12.87,3.87,3.87,0,0,1-.26.73,3.12,3.12,0,0,1-.34.52l-.3.35c-.09.08-.14.12-.17.11a.48.48,0,0,1-.28-.28s0-.1.14-.2.2-.23.32-.39a2.22,2.22,0,0,0,.33-.64,4,4,0,0,0,.21-.93v-.16l0,0-.06,0-.08,0a.16.16,0,0,1-.11,0h-.16a.75.75,0,0,1-.56-.22Z" transform="translate(-82.04 -141.73)"/><path class="c" d="M461.27,421.48a2.26,2.26,0,0,1,2-1,2.54,2.54,0,0,1,1.22.33,2.38,2.38,0,0,1,1,1.18,7.24,7.24,0,0,1,.48,2.92,6.77,6.77,0,0,1-.55,3,2.32,2.32,0,0,1-.71.86,2.35,2.35,0,0,1-.78.39,3.76,3.76,0,0,1-.65.09,2.56,2.56,0,0,1-.67-.08,2.22,2.22,0,0,1-.78-.4,2.35,2.35,0,0,1-.7-.86,6.63,6.63,0,0,1-.55-3A6.43,6.43,0,0,1,461.27,421.48Zm2.88-.15a1.23,1.23,0,0,0-1.83,0,1.69,1.69,0,0,0-.43.92,19.86,19.86,0,0,0-.1,2.46,23.34,23.34,0,0,0,.1,2.66,1.83,1.83,0,0,0,.47,1,1.18,1.18,0,0,0,1.75,0,1.79,1.79,0,0,0,.46-1.07c.06-.46.09-1.33.1-2.6a17.72,17.72,0,0,0-.1-2.44A1.82,1.82,0,0,0,464.15,421.33Z" transform="translate(-82.04 -141.73)"/><path class="c" d="M468.43,412.7l.07,0h.4l.51.44a8.94,8.94,0,0,1,2.48,3.83,15.37,15.37,0,0,1,.59,7.15,16.94,16.94,0,0,1-.41,1.94,8.3,8.3,0,0,1-.67,1.59c-.29.53-.52.94-.69,1.21a5.85,5.85,0,0,1-.74.93l-.58.59a5.17,5.17,0,0,1-.42.35l-.07.07h-.42a.14.14,0,0,1-.09,0,.58.58,0,0,1-.05-.17l.2-.23c1.87-1.95,2.8-4.81,2.8-8.6s-.93-6.65-2.8-8.6l-.2-.23A.22.22,0,0,1,468.43,412.7Z" transform="translate(-82.04 -141.73)"/><path class="c" d="M479.42,422v-.24a.38.38,0,0,1,.25-.36h5.41v-2.72l0-2.71a.49.49,0,0,1,.35-.24.4.4,0,0,1,.36.28v5.39h5.39a.43.43,0,0,1,.27.36.41.41,0,0,1-.27.36h-5.39v5.4c-.1.16-.21.25-.33.25h-.07a.38.38,0,0,1-.33-.25v-5.4h-5.41a.38.38,0,0,1-.25-.36Z" transform="translate(-82.04 -141.73)"/><path class="c" d="M508.8,404.83a.77.77,0,0,1-.6-.22.81.81,0,0,1-.19-.49,2.08,2.08,0,0,1,.1-.54,4.9,4.9,0,0,1,.38-.85,3.19,3.19,0,0,1,.82-.93,3.57,3.57,0,0,1,1.28-.63l.58-.09h.22c.4,0,.63,0,.71,0a3.43,3.43,0,0,1,1.9,1,4.64,4.64,0,0,1,1.08,1.68,5.73,5.73,0,0,1,.31,2,11,11,0,0,1-.85,3.93,8.84,8.84,0,0,1-2.12,3.38,4.66,4.66,0,0,1-3.24,1.36,3,3,0,0,1-2.71-1.41,2.93,2.93,0,0,1-.56-1.67v-.2a5.49,5.49,0,0,1,1.57-3.82,4.74,4.74,0,0,1,3.49-1.71,2.25,2.25,0,0,1,1.67.56,2.73,2.73,0,0,1,.74,1.21l0-.2a10.61,10.61,0,0,0,.37-2.48,2.84,2.84,0,0,0-.75-2.24,2.56,2.56,0,0,0-3.87.49c.5.07.74.31.74.72a1.12,1.12,0,0,1-.32.8A1.15,1.15,0,0,1,508.8,404.83Zm4.13,3.65a2.31,2.31,0,0,0-.53-1.7,1.7,1.7,0,0,0-1.23-.5,2.8,2.8,0,0,0-2,.83,4.19,4.19,0,0,0-.7,1.07,12.72,12.72,0,0,0-.6,1.84,8.78,8.78,0,0,0-.33,1.9c0,1.15.61,1.72,1.81,1.72l.33,0a3.17,3.17,0,0,0,2.24-1.63,7.51,7.51,0,0,0,.64-1.52A6.57,6.57,0,0,0,512.93,408.48Z" transform="translate(-82.04 -141.73)"/><path class="c" d="M515.77,408.83s0-.09,0-.15,0-.19.09-.4a2.45,2.45,0,0,1,.18-.56c.07-.17.16-.37.27-.59a2.18,2.18,0,0,1,.36-.55,5.11,5.11,0,0,1,.47-.4.86.86,0,0,1,.6-.16,1.82,1.82,0,0,1,.92.22,2,2,0,0,1,.56.4.73.73,0,0,1,.2.36c0,.07,0,.11.06.11a.54.54,0,0,0,.14-.13,2.66,2.66,0,0,1,2-.94h.05a1.43,1.43,0,0,1,1.31.74,1.83,1.83,0,0,1,.14.67,1.52,1.52,0,0,1-.23.87,1.18,1.18,0,0,1-.47.42,1.08,1.08,0,0,1-.46.07.85.85,0,0,1-.58-.2.69.69,0,0,1-.21-.53,1.16,1.16,0,0,1,1-1.15,1.37,1.37,0,0,0-.65-.24,2.35,2.35,0,0,0-1.87,1.34,2.3,2.3,0,0,0-.27.6c-.06.2-.26,1-.61,2.4-.41,1.69-.65,2.59-.71,2.7a.79.79,0,0,1-.78.49.66.66,0,0,1-.38-.11.68.68,0,0,1-.2-.22.31.31,0,0,1,0-.18c0-.15.24-1.19.72-3.11a30.82,30.82,0,0,0,.73-3.2c0-.47-.16-.71-.47-.71s-.47.17-.66.51a5.36,5.36,0,0,0-.43,1.1,4,4,0,0,1-.2.65s-.12,0-.29,0h-.25A.34.34,0,0,1,515.77,408.83Z" transform="translate(-82.04 -141.73)"/><path class="c" d="M504.15,429.48a.76.76,0,0,1-.6-.22.85.85,0,0,1-.2-.49,1.81,1.81,0,0,1,.11-.54,4.24,4.24,0,0,1,.38-.85,3.15,3.15,0,0,1,.81-.93,3.38,3.38,0,0,1,1.29-.63l.58-.09h.21c.4,0,.64,0,.71,0a3.43,3.43,0,0,1,1.9,1,4.46,4.46,0,0,1,1.09,1.68,6,6,0,0,1,.3,2,11.07,11.07,0,0,1-.85,3.93,8.73,8.73,0,0,1-2.12,3.38,4.62,4.62,0,0,1-3.23,1.36,3.24,3.24,0,0,1-3.28-3.08v-.2a5.49,5.49,0,0,1,1.57-3.82,4.81,4.81,0,0,1,3.5-1.72,2.23,2.23,0,0,1,1.66.57,2.64,2.64,0,0,1,.74,1.21l.06-.2a11.07,11.07,0,0,0,.36-2.48,2.87,2.87,0,0,0-.74-2.24,2.54,2.54,0,0,0-1.69-.67,2.46,2.46,0,0,0-2.18,1.15c.49.08.74.32.74.73a1.09,1.09,0,0,1-.33.79A1.15,1.15,0,0,1,504.15,429.48Zm4.12,3.65a2.31,2.31,0,0,0-.52-1.7,1.71,1.71,0,0,0-1.23-.51,2.81,2.81,0,0,0-2,.84,4.19,4.19,0,0,0-.71,1.06,13.41,13.41,0,0,0-.6,1.85,9.26,9.26,0,0,0-.32,1.9c0,1.15.6,1.72,1.81,1.72l.32,0a3.21,3.21,0,0,0,2.25-1.63,8.61,8.61,0,0,0,.63-1.52A6.57,6.57,0,0,0,508.27,433.13Z" transform="translate(-82.04 -141.73)"/><path class="c" d="M511.33,435.83a5.35,5.35,0,0,1,1.38-3.48,4,4,0,0,1,3.09-1.66,2,2,0,0,1,1.63.89.9.9,0,0,1,.83-.55.64.64,0,0,1,.42.15.43.43,0,0,1,.18.36c0,.16-.22,1.12-.67,2.9s-.68,2.77-.69,3a1,1,0,0,0,.13.6.54.54,0,0,0,.38.16.8.8,0,0,0,.36-.16,4.12,4.12,0,0,0,.74-1.74c.07-.24.13-.37.18-.38l.18,0h.08c.23,0,.34.06.34.16a2.72,2.72,0,0,1-.09.49,5.57,5.57,0,0,1-.36,1,3.25,3.25,0,0,1-.58.91,2,2,0,0,1-.58.38,2.31,2.31,0,0,1-.43,0,1.87,1.87,0,0,1-1-.27,1.48,1.48,0,0,1-.54-.56l-.11-.27s0,0-.07,0l-.07.07a3.2,3.2,0,0,1-2.17,1,2.48,2.48,0,0,1-1.76-.72A3.05,3.05,0,0,1,511.33,435.83Zm5.76-3.1a1.8,1.8,0,0,0-.1-.39,1.63,1.63,0,0,0-.41-.64,1.16,1.16,0,0,0-.83-.36,1.76,1.76,0,0,0-1.22.56,3.9,3.9,0,0,0-.9,1.47,14,14,0,0,0-.74,3v.19a1.09,1.09,0,0,1,0,.22,1.54,1.54,0,0,0,.32,1.12,1.15,1.15,0,0,0,.78.33,2,2,0,0,0,1.36-.6,3.09,3.09,0,0,0,.8-.92c0-.05.18-.69.48-1.94S517.07,432.83,517.09,432.73Z" transform="translate(-82.04 -141.73)"/><path class="c" d="M522.3,435.9a.7.7,0,0,1-.55-.23.84.84,0,0,1-.21-.57,2.14,2.14,0,0,1,.68-1.57,2.34,2.34,0,0,1,1.69-.67,2.76,2.76,0,0,1,2,.72,2.46,2.46,0,0,1,.79,1.86,2.26,2.26,0,0,1-.26,1,3.3,3.3,0,0,1-.61.87c-.24.25-.58.57-1,.95s-.74.66-1.28,1.18l-.76.72h1a13.63,13.63,0,0,0,2.14-.07,3.4,3.4,0,0,0,.31-1.13v0h.51v0s-.07.41-.17,1.16a8.72,8.72,0,0,1-.19,1.18v0h-4.75V441a.31.31,0,0,1,.08-.19c0-.07.18-.22.38-.45s.46-.51.64-.72l.44-.47.43-.47.38-.43a4.44,4.44,0,0,0,.35-.43l.3-.39a1.78,1.78,0,0,0,.27-.41c.05-.11.11-.23.19-.37a1.59,1.59,0,0,0,.16-.41,3,3,0,0,0,.09-.38,1.76,1.76,0,0,0,0-.42,2.3,2.3,0,0,0-.43-1.4,1.47,1.47,0,0,0-1.24-.59,1.35,1.35,0,0,0-.75.22,1.62,1.62,0,0,0-.44.42.79.79,0,0,0-.13.25h.06a.82.82,0,0,1,.48.18.69.69,0,0,1,.24.59.76.76,0,0,1-.21.54A.79.79,0,0,1,522.3,435.9Z" transform="translate(-82.04 -141.73)"/><rect class="c" x="416.64" y="279.46" width="31.34" height="1.09"/><path class="c" d="M533.89,421.73a15,15,0,0,1,.18-2.37,16.07,16.07,0,0,1,.42-1.94,7.28,7.28,0,0,1,.67-1.59c.29-.52.51-.92.68-1.21a4.89,4.89,0,0,1,.76-.94c.34-.34.54-.55.6-.62a3.36,3.36,0,0,1,.45-.38H538c.17,0,.25.06.25.16a1.29,1.29,0,0,1-.3.38,8.11,8.11,0,0,0-.75,1,14,14,0,0,0-.88,1.56,10.23,10.23,0,0,0-.76,2.5,19.74,19.74,0,0,0,0,7,11.53,11.53,0,0,0,.74,2.51,7.86,7.86,0,0,0,.89,1.56c.3.4.55.72.76,1a3,3,0,0,1,.3.38c0,.11-.09.16-.27.16h-.29l-.5-.43a8.94,8.94,0,0,1-2.48-3.84A14.78,14.78,0,0,1,533.89,421.73Z" transform="translate(-82.04 -141.73)"/><path class="c" d="M539.83,423.41a5.33,5.33,0,0,1,1.37-3.47,4.08,4.08,0,0,1,3.1-1.67,2.05,2.05,0,0,1,1.62.89.91.91,0,0,1,.84-.54.68.68,0,0,1,.41.14.45.45,0,0,1,.18.36c0,.16-.22,1.13-.67,2.9s-.67,2.78-.68,3a1,1,0,0,0,.12.6.52.52,0,0,0,.38.16.77.77,0,0,0,.37-.16,4.12,4.12,0,0,0,.74-1.74c.07-.24.13-.36.18-.38H548c.23,0,.35.05.35.16a2.49,2.49,0,0,1-.1.49,5.52,5.52,0,0,1-.36,1,3,3,0,0,1-.58.91,1.72,1.72,0,0,1-.58.38,2.08,2.08,0,0,1-.43,0,1.78,1.78,0,0,1-1-.28,1.29,1.29,0,0,1-.54-.56l-.11-.27s0,0-.08,0l-.07.07a3.15,3.15,0,0,1-2.17,1,2.47,2.47,0,0,1-1.75-.73A3,3,0,0,1,539.83,423.41Zm5.75-3.09a1.65,1.65,0,0,0-.09-.4,1.72,1.72,0,0,0-.42-.63,1.12,1.12,0,0,0-.83-.36,1.7,1.7,0,0,0-1.21.56,3.75,3.75,0,0,0-.91,1.46,14.84,14.84,0,0,0-.74,3v.2a.65.65,0,0,1,0,.22,1.51,1.51,0,0,0,.33,1.12,1.19,1.19,0,0,0,.78.32,2,2,0,0,0,1.35-.59,3,3,0,0,0,.8-.93s.19-.69.49-1.93S545.57,420.42,545.58,420.32Z" transform="translate(-82.04 -141.73)"/><path class="c" d="M550.79,423.48a.72.72,0,0,1-.55-.23.83.83,0,0,1-.2-.56,2.12,2.12,0,0,1,.68-1.58,2.31,2.31,0,0,1,1.69-.66,2.79,2.79,0,0,1,1.94.71,2.42,2.42,0,0,1,.79,1.86,2.26,2.26,0,0,1-.25,1.05,3.7,3.7,0,0,1-.62.87c-.24.25-.58.56-1,.95s-.73.65-1.28,1.17l-.75.72h1a16.49,16.49,0,0,0,2.14-.06,3.83,3.83,0,0,0,.3-1.14v0h.51v0s-.06.41-.16,1.16a10.67,10.67,0,0,1-.19,1.18v0H550v-.4a.28.28,0,0,1,.08-.19,5.58,5.58,0,0,1,.38-.45l.64-.71.43-.48.44-.47.37-.42c.17-.2.29-.34.36-.44s.16-.22.29-.38a2,2,0,0,0,.27-.41c.05-.11.12-.24.19-.37a1.43,1.43,0,0,0,.17-.41c0-.14.06-.27.09-.38a2.63,2.63,0,0,0,0-.43,2.28,2.28,0,0,0-.44-1.39,1.45,1.45,0,0,0-1.24-.59,1.24,1.24,0,0,0-.74.22,1.54,1.54,0,0,0-.45.42,1.59,1.59,0,0,0-.13.24s0,0,.07,0a.78.78,0,0,1,.47.17.69.69,0,0,1,.24.59.72.72,0,0,1-.2.54A.79.79,0,0,1,550.79,423.48Z" transform="translate(-82.04 -141.73)"/><path class="c" d="M562.24,422v-.24a.39.39,0,0,1,.26-.36H573a.43.43,0,0,1,.27.36.41.41,0,0,1-.27.36H562.5a.39.39,0,0,1-.26-.36Z" transform="translate(-82.04 -141.73)"/><path class="c" d="M579.42,423.41a5.35,5.35,0,0,1,1.38-3.47,4.08,4.08,0,0,1,3.09-1.67,2.05,2.05,0,0,1,1.63.89.91.91,0,0,1,.83-.54.68.68,0,0,1,.42.14.45.45,0,0,1,.18.36c0,.16-.22,1.13-.67,2.9s-.67,2.78-.69,3a1,1,0,0,0,.13.6.52.52,0,0,0,.38.16.7.7,0,0,0,.36-.16,4.1,4.1,0,0,0,.75-1.74c.07-.24.13-.36.18-.38h.25c.23,0,.34.05.34.16a3.06,3.06,0,0,1-.09.49,5.52,5.52,0,0,1-.36,1,3,3,0,0,1-.58.91,1.72,1.72,0,0,1-.58.38,2.08,2.08,0,0,1-.43,0,1.76,1.76,0,0,1-1-.28,1.38,1.38,0,0,1-.55-.56l-.1-.27s0,0-.08,0l-.07.07a3.17,3.17,0,0,1-2.17,1,2.51,2.51,0,0,1-1.76-.73A3.08,3.08,0,0,1,579.42,423.41Zm5.76-3.09a1.65,1.65,0,0,0-.09-.4,1.72,1.72,0,0,0-.42-.63,1.14,1.14,0,0,0-.83-.36,1.7,1.7,0,0,0-1.21.56,3.75,3.75,0,0,0-.91,1.46,14.19,14.19,0,0,0-.74,3v.2a1.09,1.09,0,0,1,0,.22,1.51,1.51,0,0,0,.33,1.12,1.15,1.15,0,0,0,.78.32,2,2,0,0,0,1.35-.59,3.09,3.09,0,0,0,.8-.93s.19-.69.49-1.93S585.17,420.42,585.18,420.32Z" transform="translate(-82.04 -141.73)"/><path class="c" d="M590.39,423.48a.72.72,0,0,1-.55-.23.83.83,0,0,1-.2-.56,2.15,2.15,0,0,1,.67-1.58,2.35,2.35,0,0,1,1.69-.66,2.8,2.8,0,0,1,2,.71,2.46,2.46,0,0,1,.79,1.86,2.26,2.26,0,0,1-.25,1.05,3.7,3.7,0,0,1-.62.87c-.24.25-.58.56-1,.95s-.74.65-1.28,1.17l-.76.72h1a16.14,16.14,0,0,0,2.13-.06,3.34,3.34,0,0,0,.31-1.14v0h.51v0s-.06.41-.16,1.16a9.17,9.17,0,0,1-.2,1.18v0h-4.74v-.4a.32.32,0,0,1,.07-.19q.07-.11.39-.45l.64-.71c.07-.09.22-.25.43-.48l.44-.47c.07-.09.2-.23.37-.42s.29-.34.36-.44.16-.22.29-.38a2,2,0,0,0,.27-.41,3.28,3.28,0,0,1,.19-.37,1.78,1.78,0,0,0,.17-.41c0-.14.06-.27.09-.38a2.63,2.63,0,0,0,0-.43,2.28,2.28,0,0,0-.44-1.39,1.45,1.45,0,0,0-1.24-.59,1.24,1.24,0,0,0-.74.22,1.32,1.32,0,0,0-.45.42,1,1,0,0,0-.13.24s0,0,.07,0a.78.78,0,0,1,.47.17.69.69,0,0,1,.24.59.77.77,0,0,1-.2.54A.79.79,0,0,1,590.39,423.48Z" transform="translate(-82.04 -141.73)"/><path class="c" d="M596.39,428.52v-.32a.81.81,0,0,1,.21-.55.7.7,0,0,1,.55-.23.85.85,0,0,1,.64.32,1.77,1.77,0,0,1,.29,1.13,3.58,3.58,0,0,1-.11.87,4.68,4.68,0,0,1-.27.73,3.11,3.11,0,0,1-.33.52c-.12.15-.23.26-.31.35s-.14.12-.17.11a.34.34,0,0,1-.16-.11c-.08-.08-.12-.14-.12-.17s0-.1.14-.2.2-.23.32-.39a2.22,2.22,0,0,0,.33-.64,3.53,3.53,0,0,0,.21-.93v-.14l-.07,0-.08,0a.16.16,0,0,1-.11,0h-.15a.77.77,0,0,1-.57-.22Z" transform="translate(-82.04 -141.73)"/><path class="c" d="M600.18,421.48a2.26,2.26,0,0,1,2-1,2.58,2.58,0,0,1,1.23.33,2.37,2.37,0,0,1,1,1.18,7.24,7.24,0,0,1,.48,2.92,6.77,6.77,0,0,1-.55,3,2.22,2.22,0,0,1-.71.86,2.26,2.26,0,0,1-.78.39,3.76,3.76,0,0,1-.65.09,2.48,2.48,0,0,1-.66-.08,2.17,2.17,0,0,1-.79-.4,2.46,2.46,0,0,1-.7-.86,6.63,6.63,0,0,1-.55-3A6.43,6.43,0,0,1,600.18,421.48Zm2.88-.15a1.23,1.23,0,0,0-1.83,0,1.75,1.75,0,0,0-.42.92,17.41,17.41,0,0,0-.11,2.46,20.45,20.45,0,0,0,.11,2.66,1.83,1.83,0,0,0,.46,1,1.18,1.18,0,0,0,1.75,0,1.79,1.79,0,0,0,.46-1.07,23.45,23.45,0,0,0,.1-2.6,17.72,17.72,0,0,0-.1-2.44A1.82,1.82,0,0,0,603.06,421.33Z" transform="translate(-82.04 -141.73)"/><path class="c" d="M607.34,412.7l.08,0h.39l.51.44A8.94,8.94,0,0,1,610.8,417a14.83,14.83,0,0,1,.78,4.78,15.18,15.18,0,0,1-.18,2.37A14.88,14.88,0,0,1,611,426a8.3,8.3,0,0,1-.67,1.59c-.29.53-.52.94-.69,1.21a5.33,5.33,0,0,1-.74.93l-.58.59-.41.35-.08.07h-.41a.11.11,0,0,1-.09,0,.38.38,0,0,1-.06-.17l.2-.23c1.87-1.95,2.81-4.81,2.81-8.6s-.94-6.65-2.81-8.6l-.2-.23A.22.22,0,0,1,607.34,412.7Z" transform="translate(-82.04 -141.73)"/><path class="c" d="M619.34,420a.4.4,0,0,1,.25-.37h11.53a.43.43,0,0,1,.27.37c0,.13-.08.24-.25.34l-5.76,0h-5.75A.35.35,0,0,1,619.34,420Zm0,3.51a.36.36,0,0,1,.29-.37h11.51a.49.49,0,0,1,.25.37.41.41,0,0,1-.27.36H619.59A.4.4,0,0,1,619.34,423.49Z" transform="translate(-82.04 -141.73)"/><path class="c" d="M639.17,415.67a3.2,3.2,0,0,1,2.77-1.47,3.67,3.67,0,0,1,1.74.47,3.4,3.4,0,0,1,1.41,1.67,10.43,10.43,0,0,1,.67,4.12,9.44,9.44,0,0,1-.78,4.29,3.08,3.08,0,0,1-1,1.22,3.45,3.45,0,0,1-1.1.56,4.94,4.94,0,0,1-.92.12,3.72,3.72,0,0,1-.94-.11,3.08,3.08,0,0,1-1.11-.57,3.3,3.3,0,0,1-1-1.22,9.44,9.44,0,0,1-.78-4.29A9.07,9.07,0,0,1,639.17,415.67Zm4.07-.22a1.69,1.69,0,0,0-1.28-.58,1.73,1.73,0,0,0-1.31.58,2.38,2.38,0,0,0-.59,1.3,25,25,0,0,0-.15,3.48,29.07,29.07,0,0,0,.15,3.76,2.51,2.51,0,0,0,.65,1.43,1.67,1.67,0,0,0,2.48,0,2.63,2.63,0,0,0,.65-1.52c.08-.65.13-1.87.14-3.67a25.25,25.25,0,0,0-.14-3.46A2.61,2.61,0,0,0,643.24,415.45Z" transform="translate(-82.04 -141.73)"/><path class="d" d="M448.06,231.13l103.06,20.23" transform="translate(-82.04 -141.73)"/><path class="e" d="M539.3,253.4a42.36,42.36,0,0,1,14.77-1.46A42.82,42.82,0,0,1,540.94,245" transform="translate(-82.04 -141.73)"/><path class="f" d="M558.48,192.56l183.41,71.51.34,27.83L558.82,220.39Z" transform="translate(-82.04 -141.73)"/><path class="g" d="M529.44,266.1l121.12-38.17" transform="translate(-82.04 -141.73)"/><path class="h" d="M479,218.15l180.13,71.27" transform="translate(-82.04 -141.73)"/><path class="i" d="M558.82,192.82v28" transform="translate(-82.04 -141.73)"/><path class="g" d="M558.49,142.2v50" transform="translate(-82.04 -141.73)"/><path class="j" d="M558.49,142.2c0-.06,41.51,38.16,42.06,38.21s48.91,47.05,48.77,47.28-90.55-35.8-90.41-35.26S558.53,142.26,558.49,142.2Z" transform="translate(-82.04 -141.73)"/><path class="f" d="M559.2,192.34c-.18.16-.12,27.81-.18,27.81s-82.84-1.72-82.87-1.82S559.38,192.18,559.2,192.34Z" transform="translate(-82.04 -141.73)"/><path class="j" d="M437.49,180.2c0-1.43,41,37.89,41.53,38s48.91,47,48.77,47.28-90.36-35-90.3-34.79S437.48,181.63,437.49,180.2Z" transform="translate(-82.04 -141.73)"/><path class="f" d="M82.25,195.36l184.18,71.81.43,34.79L82.68,230.15Z" transform="translate(-82.04 -141.73)"/><path class="j" d="M82.72,180.92c0-1.43,24.6,10.61,46.3,35.23s44.14,49.76,44,50-90.36-35-90.3-34.79S82.71,182.36,82.72,180.92Z" transform="translate(-82.04 -141.73)"/><path class="j" d="M265.92,302l120.83-37.66.71,49.74L266.63,351.72Z" transform="translate(-82.04 -141.73)"/><path class="j" d="M387.46,315.06c-.89,2.55-24.6-12.81-41.41-28.46s-54.12-58.4-52-58,93.48,36.21,93.41,36S388.36,312.5,387.46,315.06Z" transform="translate(-82.04 -141.73)"/><path class="f" d="M387,263.83c-.06.22.46,36,.42,34.79S335.84,315.23,321,310.15s-16.71-20.5-16.64-20S387.1,263.61,387,263.83Z" transform="translate(-82.04 -141.73)"/><path class="f" d="M203.88,193.35l183.17,71.41.41,33.86L204.3,227.21Z" transform="translate(-82.04 -141.73)"/><path class="f" d="M204.14,193.15c-.06.23.46,36,.43,34.79s-8.74,3.22-17.55.21-18.19-24-18-24S204.2,192.93,204.14,193.15Z" transform="translate(-82.04 -141.73)"/><path class="j" d="M620.69,302.26,741.52,264.6l.71,49.74L621.4,352Z" transform="translate(-82.04 -141.73)"/><path class="h" d="M438,217.06l121,3" transform="translate(-82.04 -141.73)"/><path class="j" d="M437.11,180.55l120.83-37.66.71,49.74L437.82,230.29Z" transform="translate(-82.04 -141.73)"/><path class="k" d="M169,204.15c35.36-10.81,88.4,97.9,135.36,86" transform="translate(-82.04 -141.73)"/><path class="l" d="M173,266.15C143.56,254.3,315.56,236.3,293.44,228" transform="translate(-82.04 -141.73)"/><path class="f" d="M266.86,302c.06-.23-.46-36-.43-34.79s6.66.4,18.59,5,19.4,17.93,19.36,18S266.8,302.18,266.86,302Z" transform="translate(-82.04 -141.73)"/><path class="f" d="M82.72,231.36c.06-.22,0-35.26,0-35s44.62-14.07,64.3-8.21,22,16,22,16S82.66,231.58,82.72,231.36Z" transform="translate(-82.04 -141.73)"/><path class="j" d="M203.14,142.72c0-1.44,24.6,10.61,46.3,35.23s44.14,49.76,44,50-90.36-35-90.3-34.8S203.13,144.15,203.14,142.72Z" transform="translate(-82.04 -141.73)"/><path class="j" d="M82.34,181.27l120.83-37.66.71,49.74L83.05,231Z" transform="translate(-82.04 -141.73)"/><path class="j" d="M266.43,352.6c-.9,2.56-24.17-13.75-41.41-28.45-7.12-6.07-17.58-17.08-27.27-27.88-13.77-15.38-26-30.35-24.73-30.12,2.12.4,93.47,36.21,93.41,36S267.33,350.05,266.43,352.6Z" transform="translate(-82.04 -141.73)"/><path class="g" d="M82.72,180.92v50" transform="translate(-82.04 -141.73)"/><path class="i" d="M82.72,196.36v35" transform="translate(-82.04 -141.73)"/><path class="g" d="M387.43,264.15v50" transform="translate(-82.04 -141.73)"/><path class="i" d="M387.46,264.62v34" transform="translate(-82.04 -141.73)"/><path class="i" d="M266.43,267.17v35" transform="translate(-82.04 -141.73)"/><path class="m" d="M83.55,230.92l120.59-37.77L387,264.38,266.43,302.15Z" transform="translate(-82.04 -141.73)"/><path class="g" d="M266.43,302.15v50" transform="translate(-82.04 -141.73)"/><path class="g" d="M82.72,180.92c50.63,17.73,127.63,151.73,183.71,171.23" transform="translate(-82.04 -141.73)"/><path class="g" d="M203.72,142.92v50" transform="translate(-82.04 -141.73)"/><path class="g" d="M203.72,142.92c50.63,17.73,127.63,151.73,183.71,171.23" transform="translate(-82.04 -141.73)"/><path class="m" d="M230.82,288.23,277,306.15" transform="translate(-82.04 -141.73)"/><path d="M237.9,286.38l-9.88.77,6.78,7.23Z" transform="translate(-82.04 -141.73)"/><path class="m" d="M301.52,291l-48.18,15.17" transform="translate(-82.04 -141.73)"/><path d="M297.15,296.92l7.23-6.78-9.81-1.41Z" transform="translate(-82.04 -141.73)"/><path class="h" d="M266.43,267.17c73.31,11.84.65,68.23,121,31.45" transform="translate(-82.04 -141.73)"/><path class="h" d="M204.05,193.54v34" transform="translate(-82.04 -141.73)"/><path class="h" d="M82.72,196.36c120.14-36.77,68.52,44.65,121.33,31.18" transform="translate(-82.04 -141.73)"/><path class="h" d="M82.72,196.36l183.71,70.81" transform="translate(-82.04 -141.73)"/><path class="h" d="M203.75,227.81l183.71,70.81" transform="translate(-82.04 -141.73)"/><path class="g" d="M266.43,352.15l121-38" transform="translate(-82.04 -141.73)"/><path class="g" d="M82.72,180.92l121-38" transform="translate(-82.04 -141.73)"/><path class="m" d="M266.43,280.18v32" transform="translate(-82.04 -141.73)"/><path d="M270.72,286.11l-4.29-8.93-4.29,8.93Z" transform="translate(-82.04 -141.73)"/><path class="f" d="M437.29,216.52,621,288.15l.16,12.91L437.45,229.43Z" transform="translate(-82.04 -141.73)"/><path class="f" d="M621.63,301.23c.06-.22-.5-12.93-.61-13.08s38.28,1.1,38.13,1.27S621.57,301.46,621.63,301.23Z" transform="translate(-82.04 -141.73)"/><path class="j" d="M203.72,142.92c0-1.43,24,10.41,45.72,35s43.38,47.71,44,50-89.59-35.71-89.53-35.52S203.71,144.36,203.72,142.92Z" transform="translate(-82.04 -141.73)"/><path class="j" d="M621.2,351.88c-.29.33-30.29-27.34-30.18-27.73s-34.11-31.94-34-32-30.47-27-29.23-26.72,93.47,36.21,93.41,36S621.5,351.56,621.2,351.88Z" transform="translate(-82.04 -141.73)"/><path class="g" d="M437.49,180.2v50" transform="translate(-82.04 -141.73)"/><path class="i" d="M437.49,216.64v14" transform="translate(-82.04 -141.73)"/><path class="g" d="M742.2,263.43v50" transform="translate(-82.04 -141.73)"/><path class="n" d="M742.23,263.9v28" transform="translate(-82.04 -141.73)"/><path class="n" d="M621.2,287.45v14" transform="translate(-82.04 -141.73)"/><path class="m" d="M438.32,230.2l120.59-37.77,182.88,71.23L621.2,301.43Z" transform="translate(-82.04 -141.73)"/><path class="g" d="M621.2,301.43v50" transform="translate(-82.04 -141.73)"/><path class="m" d="M585.59,287.51l46.2,17.92" transform="translate(-82.04 -141.73)"/><path d="M592.67,285.66l-9.88.77,6.78,7.23Z" transform="translate(-82.04 -141.73)"/><path class="i" d="M437.49,216.64,621.2,288.45" transform="translate(-82.04 -141.73)"/><path class="i" d="M559,220.15,742.23,291.9" transform="translate(-82.04 -141.73)"/><path class="g" d="M621.2,351.43l121-38" transform="translate(-82.04 -141.73)"/><path class="g" d="M437.49,180.2l121-38" transform="translate(-82.04 -141.73)"/><path class="f" d="M742.2,263.43c-.18.16.07,28.31,0,28.47s-83.05-2.38-83.08-2.48S742.38,263.27,742.2,263.43Z" transform="translate(-82.04 -141.73)"/><path class="h" d="M621,288.15l122,4" transform="translate(-82.04 -141.73)"/><path class="m" d="M656.29,290.32l-48.18,15.17" transform="translate(-82.04 -141.73)"/><path d="M651.92,296.2l7.23-6.78L649.34,288Z" transform="translate(-82.04 -141.73)"/><path class="m" d="M621.2,279.45v32" transform="translate(-82.04 -141.73)"/><path d="M625.49,285.39l-4.29-8.93-4.29,8.93Z" transform="translate(-82.04 -141.73)"/><path class="f" d="M437.63,230.15c-.15-.26.5-12.94.39-13.09s38.29,1.1,38.13,1.27S437.77,230.41,437.63,230.15Z" transform="translate(-82.04 -141.73)"/><path class="g" d="M437.49,180.2,621.4,352" transform="translate(-82.04 -141.73)"/><path class="g" d="M558.49,142.2,742.2,313.43" transform="translate(-82.04 -141.73)"/><path class="j" d="M742.73,314.15c-.29.32-30.29-27.35-30.18-27.74s-34.11-31.94-34-32-30.47-26.95-29.23-26.72,93.47,36.21,93.41,36S743,313.82,742.73,314.15Z" transform="translate(-82.04 -141.73)"/><path d="M435.63,230.15a1.8,1.8,0,1,1,1.8,1.8A1.79,1.79,0,0,1,435.63,230.15Z" transform="translate(-82.04 -141.73)"/><path d="M228.3,245.75a2.91,2.91,0,1,1,2.91,2.91A2.91,2.91,0,0,1,228.3,245.75Z" transform="translate(-82.04 -141.73)"/><path d="M566.17,253.78a2.91,2.91,0,1,1,2.91,2.91A2.92,2.92,0,0,1,566.17,253.78Z" transform="translate(-82.04 -141.73)"/><path class="o" d="M297.59,309.15l0,1.56,1.24-.51,1.19-.37v-.54l-.63.19c-.38.12-.45,0-.46-.88l-.06-3.29c-.05-2.63-.73-3.34-2.59-2.66A5.07,5.07,0,0,0,294.3,304l-.84.89,0,1.17.42,0,.2-.63c.32-1,.48-1.15,1.21-1.42,1.51-.55,2.14-.11,2.22,1.51l-1.58.9c-2.16,1.24-3.06,2.41-3,4,0,1.4.79,1.94,2.05,1.48a1.84,1.84,0,0,0,.67-.39Zm0-.75a5.22,5.22,0,0,1-2.07,2.18c-.64.23-1.21-.23-1.22-1a2.86,2.86,0,0,1,.77-1.93,11,11,0,0,1,2.48-1.63Z" transform="translate(-82.04 -141.73)"/><path class="p" d="M305.63,311.42V311l-.58.17c-.61.19-.73.09-.74-.56l-.13-7.6-2.68,2.26.09.6,1.67-1.44.11,6.52c0,.65-.11.84-.71,1.09l-.63.27v.38l1.84-.71C304.22,311.89,305.45,311.48,305.63,311.42Z" transform="translate(-82.04 -141.73)"/><path class="o" d="M230,304.59l-.05,1.52c1,.32,1,.32,1.24.4l1.19.48v-.54l-.63-.27c-.38-.16-.45-.32-.46-1.22l-.06-3.33c-.05-2.66-.73-3.87-2.59-4.54a2.84,2.84,0,0,0-1.92-.08l-.84.27,0,1.18.41.28.2-.49c.32-.73.48-.8,1.21-.53a3,3,0,0,1,2.22,3.12l-1.58-.25c-2.16-.33-3.06.19-3,1.77a3.08,3.08,0,0,0,2.05,3,1.19,1.19,0,0,0,.67.09Zm0-.77a2.08,2.08,0,0,1-2.07.68,2.19,2.19,0,0,1-1.22-1.89,1.34,1.34,0,0,1,.77-1.37,6.29,6.29,0,0,1,2.48.18Z" transform="translate(-82.04 -141.73)"/><path class="p" d="M233.56,310.74v.33c2.09.76,2.09.72,2.49.87s.4.19,2.56,1l0-1.08c-1.28-.41-1.8-.65-3.87-1.35l2-1.72c1.06-.91,1.38-1.49,1.37-2.45a3.43,3.43,0,0,0-2.34-3.2,1.69,1.69,0,0,0-1.88.2l-.16,1.66.32.12.14-.53c.16-.68.56-.85,1.31-.58a2.49,2.49,0,0,1,1.61,2.35c0,.95-.44,1.73-1.68,2.79Z" transform="translate(-82.04 -141.73)"/><path class="o" d="M278.21,281.81a18.14,18.14,0,0,1,.22-2.09.53.53,0,0,0-.32,0c-.5.18-1,.79-1.54,1.91a34.83,34.83,0,0,0-1.46,3.27l.46-2.92a4.52,4.52,0,0,0,.09-.79c0-.36-.14-.53-.38-.44s-.94.72-2.1,2.1l-.44.52.12.32.5-.56a2.74,2.74,0,0,1,.76-.7c.16-.05.27.07.28.3a51.5,51.5,0,0,1-1.2,7.53l.16.07a9.48,9.48,0,0,1,.86-.55l.2-.11.38-2.31a11.48,11.48,0,0,1,1.3-4c.53-1,.95-1.53,1.3-1.65a.46.46,0,0,1,.58.13Z" transform="translate(-82.04 -141.73)"/><path class="q" d="M283.86,290.06v-.38l-.58.18c-.62.18-.73.09-.74-.57l-.13-7.6L279.72,284l.09.6,1.66-1.44.12,6.51c0,.66-.11.84-.71,1.1l-.63.26v.38l1.84-.71Z" transform="translate(-82.04 -141.73)"/><path class="p" d="M287,287.32c-.3.22-.5.37-1.09.77a9.48,9.48,0,0,1-1,3.35l.16.08.46-.4a17.2,17.2,0,0,0,1.59-3.68Z" transform="translate(-82.04 -141.73)"/><path class="r" d="M287.72,288.33v.32c2.09-.76,2.09-.8,2.49-.94s.4-.11,2.56-.9l0-1.07c-1.28.53-1.8.67-3.86,1.47l2-3.16c1.06-1.7,1.38-2.51,1.37-3.45,0-1.45-.91-2-2.34-1.51a3.54,3.54,0,0,0-1.88,1.57l-.16,1.78.32-.11.14-.64a1.88,1.88,0,0,1,1.31-1.53c1-.35,1.59.11,1.61,1.18s-.44,2.05-1.68,4Z" transform="translate(-82.04 -141.73)"/><path class="o" d="M652.36,308.43l-.05,1.56c1-.44,1-.44,1.24-.51l1.19-.38v-.54l-.63.19c-.38.13-.45,0-.46-.88l-.06-3.29c-.05-2.62-.73-3.33-2.59-2.65a5.07,5.07,0,0,0-1.92,1.31l-.83.88,0,1.17.41,0,.2-.64c.32-1,.48-1.15,1.21-1.41,1.51-.55,2.14-.11,2.22,1.51l-1.58.9c-2.16,1.24-3.06,2.41-3,4,0,1.4.79,1.93,2,1.47a1.71,1.71,0,0,0,.67-.38Zm0-.76a5.19,5.19,0,0,1-2.07,2.19c-.64.23-1.21-.23-1.22-1a2.89,2.89,0,0,1,.77-1.92,10.61,10.61,0,0,1,2.48-1.63Z" transform="translate(-82.04 -141.73)"/><path class="p" d="M660.4,310.7v-.38l-.58.17c-.61.19-.73.09-.74-.56l-.13-7.61-2.67,2.27.08.6,1.67-1.44.11,6.52c0,.65-.11.83-.71,1.09l-.63.27V312l1.84-.71C659,311.17,660.22,310.76,660.4,310.7Z" transform="translate(-82.04 -141.73)"/><path class="o" d="M584.79,303.87l0,1.52,1.25.39,1.18.49v-.55l-.62-.26c-.39-.16-.45-.33-.47-1.22l-.06-3.33c0-2.66-.73-3.87-2.59-4.54a2.9,2.9,0,0,0-1.92-.09l-.83.28,0,1.18.41.28.2-.49c.32-.73.48-.8,1.21-.53a3,3,0,0,1,2.22,3.12l-1.58-.25c-2.16-.34-3.06.19-3,1.77a3.07,3.07,0,0,0,2,3,1.13,1.13,0,0,0,.67.1Zm0-.77a2.07,2.07,0,0,1-2.07.68,2.19,2.19,0,0,1-1.22-1.89,1.35,1.35,0,0,1,.77-1.37,6.29,6.29,0,0,1,2.48.18Z" transform="translate(-82.04 -141.73)"/><path class="p" d="M588.33,310v.33c2.09.76,2.09.72,2.49.87s.4.18,2.56,1l0-1.08c-1.28-.41-1.8-.65-3.86-1.35l2-1.72c1.06-.92,1.38-1.49,1.37-2.45a3.44,3.44,0,0,0-2.34-3.21,1.73,1.73,0,0,0-1.88.2l-.16,1.67.32.12.14-.54c.16-.67.56-.84,1.31-.57a2.49,2.49,0,0,1,1.61,2.35c0,.95-.44,1.72-1.68,2.79Z" transform="translate(-82.04 -141.73)"/><path class="o" d="M633.09,282.62c0-.7.11-1.31.22-2.09a.53.53,0,0,0-.32,0c-.49.18-1,.79-1.54,1.92a34.85,34.85,0,0,0-1.46,3.26l.47-2.92a4.36,4.36,0,0,0,.08-.79c0-.36-.14-.53-.38-.44s-.93.72-2.1,2.1l-.44.52.12.32.5-.56c.44-.49.62-.64.76-.69s.28.06.28.29a50,50,0,0,1-1.2,7.53l.16.07c.24-.18.49-.32.86-.55l.21-.11.37-2.31a11.76,11.76,0,0,1,1.3-4c.53-1,.95-1.52,1.31-1.65a.46.46,0,0,1,.58.13Z" transform="translate(-82.04 -141.73)"/><path class="q" d="M638.77,292.62v-.38l-.58.18c-.61.18-.73.09-.74-.57l-.13-7.6-2.67,2.27.09.6,1.66-1.45.11,6.52c0,.66-.11.84-.71,1.1l-.63.26v.38l1.85-.71Z" transform="translate(-82.04 -141.73)"/><path class="p" d="M641.93,289.88c-.3.22-.5.37-1.09.77a9.64,9.64,0,0,1-1,3.35l.16.08.45-.4a17,17,0,0,0,1.59-3.69Z" transform="translate(-82.04 -141.73)"/><path class="r" d="M642.64,290.88v.33c2.09-.76,2.09-.8,2.5-.94s.4-.11,2.56-.9l0-1.07c-1.29.53-1.8.67-3.87,1.47l2-3.17c1.06-1.69,1.39-2.5,1.37-3.44,0-1.45-.91-2-2.33-1.51a3.53,3.53,0,0,0-1.89,1.57l-.16,1.78.33-.12.13-.63a1.91,1.91,0,0,1,1.31-1.53c1-.35,1.59.11,1.61,1.18s-.44,2.05-1.67,4Z" transform="translate(-82.04 -141.73)"/><path class="o" d="M628.45,277.58c-.82.3-1.43,1.12-2.19,3l.56.29c.61-1.45,1-2,1.66-2.23.93-.34,2.58.34,3.63,0,.82-.3,1.51-1.18,2.17-2.83l-.55-.29a3.59,3.59,0,0,1-1.65,2.12C631.27,277.86,629.61,277.16,628.45,277.58Z" transform="translate(-82.04 -141.73)"/><path class="s" d="M426.34,250.38a2,2,0,0,0,.87.24,2.92,2.92,0,0,0,2.1-1.55l1.55-2.38.23,1.4c.26,1.74.73,2.53,1.47,2.53a3.06,3.06,0,0,0,1.75-.93l1-.9-.18-.39a3.32,3.32,0,0,1-1.57.92c-.31,0-.57-.21-.78-.61a8.22,8.22,0,0,1-.51-1.74l-.36-2.06.71-1c1-1.32,1.51-1.79,2.14-1.79a.65.65,0,0,1,.67.47l.29-.09.31-1.73a1.24,1.24,0,0,0-.62-.2c-.81,0-1.63.73-2.89,2.61l-.76,1.12-.12-1c-.24-2-.8-2.75-2-2.75a1.44,1.44,0,0,0-1.16.42l-1.19,1.7.35.2c.61-.69,1-1,1.41-1,.67,0,1.12.84,1.47,2.84l.22,1.26-.81,1.27c-.88,1.36-1.57,2-2.15,2-.3,0-.53-.08-.57-.19l-.22-.57-.41.06A10.24,10.24,0,0,1,426.34,250.38Z" transform="translate(-82.04 -141.73)"/><path class="t" d="M440.7,244.16c-2.21,0-3.34,1.76-3.34,5.21a7.29,7.29,0,0,0,.8,3.82,2.65,2.65,0,0,0,2.18,1.1c2.16,0,3.24-1.86,3.24-5.51C443.58,245.65,442.66,244.16,440.7,244.16Zm-.26.5c1.39,0,1.94,1.4,1.94,4.83,0,3-.54,4.3-1.85,4.3s-2-1.44-2-4.93C438.56,245.85,439.09,244.66,440.44,244.66Z" transform="translate(-82.04 -141.73)"/><path class="s" d="M514.62,241.18l.14.2c2.17-.08,4.33-.08,6.51-.08s4.12,0,6.18.08l.12-.2-6.12-14.1h-.51C520.07,229.27,516,238.69,514.62,241.18Zm10.4-.63h-8.81c1.35-3.63,2.8-7.18,4.35-10.75h.14C522.23,233.33,523.7,236.92,525,240.55Zm8.61-3.41-.59,2.59a4.82,4.82,0,0,0-.12,1c0,.45.18.72.49.72.47,0,1.3-.53,3-1.92l-.15-.43c-.49.41-1.08,1-1.53,1-.18,0-.3-.19-.3-.47a.79.79,0,0,1,0-.23l1.88-7.73-.21-.18-.67.37a4.38,4.38,0,0,0-1.74-.39,3.14,3.14,0,0,0-1.53.37,4.82,4.82,0,0,0-2.44,2.24,15.11,15.11,0,0,0-1.53,5.86c0,.89.3,1.59.69,1.59C529.63,241.53,531.27,240.47,533.63,237.14Zm1-4.28a11.17,11.17,0,0,1-1.53,4.34c-1.16,1.72-2.41,2.9-3.06,2.9-.24,0-.37-.27-.37-.82a16.36,16.36,0,0,1,1.29-5.32c.49-1.12,1-1.49,1.94-1.49A4.87,4.87,0,0,1,534.61,232.86Z" transform="translate(-82.04 -141.73)"/></svg>