<?xml version="1.0" encoding="UTF-8" standalone="no"?>
<!-- Created with Inkscape (http://www.inkscape.org/) -->

<svg
   width="110.67926mm"
   height="61.063007mm"
   viewBox="0 0 392.17061 216.36498"
   id="svg2"
   version="1.1"
   inkscape:version="1.3.2 (091e20ef0f, 2023-11-25, custom)"
   sodipodi:docname="figs_cm.svg"
   xmlns:inkscape="http://www.inkscape.org/namespaces/inkscape"
   xmlns:sodipodi="http://sodipodi.sourceforge.net/DTD/sodipodi-0.dtd"
   xmlns="http://www.w3.org/2000/svg"
   xmlns:svg="http://www.w3.org/2000/svg"
   xmlns:rdf="http://www.w3.org/1999/02/22-rdf-syntax-ns#"
   xmlns:cc="http://creativecommons.org/ns#"
   xmlns:dc="http://purl.org/dc/elements/1.1/"
   xmlns:ns1="http://www.iki.fi/pav/software/textext/">
  <sodipodi:namedview
     id="base"
     pagecolor="#ffffff"
     bordercolor="#666666"
     borderopacity="1.0"
     inkscape:pageopacity="0.0"
     inkscape:pageshadow="2"
     inkscape:zoom="1.979899"
     inkscape:cx="-39.901025"
     inkscape:cy="1684.9344"
     inkscape:document-units="px"
     inkscape:current-layer="layer1"
     showgrid="false"
     inkscape:object-paths="true"
     inkscape:snap-intersection-paths="true"
     inkscape:object-nodes="true"
     fit-margin-top="0"
     fit-margin-left="0"
     fit-margin-right="0"
     fit-margin-bottom="0"
     inkscape:window-width="1920"
     inkscape:window-height="1064"
     inkscape:window-x="0"
     inkscape:window-y="16"
     inkscape:window-maximized="1"
     inkscape:showpageshadow="2"
     inkscape:pagecheckerboard="0"
     inkscape:deskcolor="#d1d1d1" />
  <defs
     id="defs4">
    <marker
       style="overflow:visible"
       id="Arrow1L"
       refX="0"
       refY="0"
       orient="auto-start-reverse"
       inkscape:stockid="Arrow1L"
       markerWidth="8.75"
       markerHeight="5"
       viewBox="0 0 8.75 5"
       inkscape:isstock="true"
       inkscape:collect="always"
       preserveAspectRatio="xMidYMid">
      <path
         style="fill:context-stroke;fill-rule:evenodd;stroke:none"
         d="M 0,0 5,-5 -12.5,0 5,5 Z"
         id="arrow1L"
         transform="scale(-0.5)" />
    </marker>
    <marker
       style="overflow:visible"
       id="marker1276"
       refX="0"
       refY="0"
       orient="auto-start-reverse"
       inkscape:stockid="Arrow1L"
       markerWidth="8.75"
       markerHeight="5"
       viewBox="0 0 8.75 5"
       inkscape:isstock="true"
       inkscape:collect="always"
       preserveAspectRatio="xMidYMid">
      <path
         style="fill:context-stroke;fill-rule:evenodd;stroke:none"
         d="M 0,0 5,-5 -12.5,0 5,5 Z"
         id="path1274"
         transform="scale(-0.5)" />
    </marker>
  </defs>
  <metadata
     id="metadata7">
    <rdf:RDF>
      <cc:Work
         rdf:about="">
        <dc:format>image/svg+xml</dc:format>
        <dc:type
           rdf:resource="http://purl.org/dc/dcmitype/StillImage" />
      </cc:Work>
    </rdf:RDF>
  </metadata>
  <g
     inkscape:label="Layer 1"
     inkscape:groupmode="layer"
     id="layer1"
     transform="translate(1175.5171,-1383.6218)">
    <path
       style="fill:none;stroke:#000000;stroke-width:1.77165;stroke-linecap:butt;stroke-linejoin:miter;stroke-dasharray:none;stroke-opacity:1;marker-start:url(#Arrow1L);marker-end:url(#marker1276)"
       d="m -1090.4397,1398.7799 v 178.4192 h 296.02034"
       id="path1063" />
    <path
       style="fill:none;stroke:#a50034;stroke-width:1.875;stroke-linecap:butt;stroke-linejoin:miter;stroke-dasharray:none;stroke-opacity:1"
       d="m -1090.4397,1577.1991 c 32.4112,-168.884 206.85044,-173.5685 290.11214,-58.1805"
       id="path1382"
       sodipodi:nodetypes="cc" />
    <path
       style="fill:none;stroke:#000000;stroke-width:0.938976;stroke-linecap:butt;stroke-linejoin:miter;stroke-dasharray:7.51181, 7.51181;stroke-dashoffset:0;stroke-opacity:1"
       d="m -1090.4397,1424.6752 290.11214,1.0018"
       id="path1687" />
    <path
       style="fill:none;stroke:#000000;stroke-width:0.937499px;stroke-linecap:butt;stroke-linejoin:miter;stroke-opacity:1"
       d="m -1052.8272,1491.4202 56.08704,-66.2441 v 24.7263 l 66.5621,-24.7263 v 15.7266 l 75.2638,9.4364"
       id="path1693"
       sodipodi:nodetypes="cccccc" />
    <path
       style="fill:none;stroke:#000000;stroke-width:0.937499px;stroke-linecap:butt;stroke-linejoin:miter;stroke-dasharray:7.49998, 3.74999;stroke-dashoffset:0;stroke-opacity:1"
       d="m -854.91426,1450.3391 44.8703,5.6257"
       id="path1695" />
    <path
       style="fill:none;stroke:#000000;stroke-width:0.937499px;stroke-linecap:butt;stroke-linejoin:miter;stroke-opacity:1"
       d="m -1110.9522,1491.4202 v -66.6151"
       id="path1731" />
    <path
       style="fill:none;stroke:#000000;stroke-width:0.937499px;stroke-linecap:butt;stroke-linejoin:miter;stroke-opacity:1"
       d="m -1115.9488,1491.4202 h 9.9932"
       id="path1733" />
    <path
       style="fill:none;stroke:#000000;stroke-width:0.937499px;stroke-linecap:butt;stroke-linejoin:miter;stroke-opacity:1"
       d="m -1116.4176,1424.8051 h 9.9933"
       id="path1735" />
    <circle
       style="fill:#00b8c8;fill-opacity:1;stroke:none;stroke-width:1.75178;stroke-linejoin:bevel;stroke-miterlimit:3.9;stroke-dasharray:13.9922, 6.99608;stroke-dashoffset:0;stroke-opacity:1"
       id="path1865"
       cx="-1052.8271"
       cy="1491.4203"
       r="7.3475151" />
    <g
       transform="matrix(2.38517,0,0,2.38517,-1132.3942,1383.6225)"
       ns1:version="1.9.0"
       ns1:texconverter="pdflatex"
       ns1:pdfconverter="inkscape"
       ns1:text="$f_\\mathrm{int}$"
       ns1:preamble="/home/iuribarcelos/.config/inkscape/extensions/textext/default_packages.tex"
       ns1:scale="1.7888804714379716"
       ns1:alignment="middle center"
       ns1:stroke-to-path="0"
       ns1:inkscapeversion="1.3.2"
       id="g248"
       ns1:jacobian_sqrt="2.38517">
      <defs
         id="defs239" />
      <g
         fill="#000000"
         fill-opacity="1"
         id="g241"
         transform="translate(-149.243,-127.734)">
        <g
           transform="translate(148.712,134.765)"
           id="g240">
          <path
             d="m 3.65625,-3.984375 h 0.859375 c 0.203125,0 0.296875,0 0.296875,-0.203125 0,-0.109375 -0.09375,-0.109375 -0.265625,-0.109375 H 3.71875 L 3.921875,-5.4375 c 0.046875,-0.203125 0.1875,-0.90625 0.25,-1.03125 0.078125,-0.1875 0.25,-0.34375 0.46875,-0.34375 0.03125,0 0.296875,0 0.484375,0.1875 -0.4375,0.03125 -0.546875,0.390625 -0.546875,0.53125 0,0.234375 0.1875,0.359375 0.375,0.359375 C 5.21875,-5.734375 5.5,-5.96875 5.5,-6.34375 c 0,-0.453125 -0.453125,-0.6875 -0.859375,-0.6875 -0.34375,0 -0.96875,0.1875 -1.265625,1.171875 -0.0625,0.203125 -0.09375,0.3125 -0.328125,1.5625 h -0.6875 c -0.203125,0 -0.3125,0 -0.3125,0.1875 0,0.125 0.09375,0.125 0.28125,0.125 h 0.65625 L 2.25,-0.046875 c -0.1875,0.96875 -0.359375,1.875 -0.875,1.875 -0.046875,0 -0.28125,0 -0.484375,-0.1875 C 1.359375,1.609375 1.453125,1.25 1.453125,1.109375 1.453125,0.875 1.265625,0.75 1.078125,0.75 0.8125,0.75 0.53125,0.984375 0.53125,1.359375 c 0,0.4375 0.4375,0.6875 0.84375,0.6875 0.546875,0 0.953125,-0.59375 1.125,-0.96875 0.328125,-0.625 0.546875,-1.828125 0.5625,-1.90625 z m 0,0"
             id="path239" />
        </g>
      </g>
      <g
         fill="#000000"
         fill-opacity="1"
         id="g245"
         transform="translate(-149.243,-127.734)">
        <g
           transform="translate(153.59,136.259)"
           id="g242">
          <path
             d="m 1.46875,-4.296875 c 0,-0.203125 -0.171875,-0.40625 -0.40625,-0.40625 -0.203125,0 -0.390625,0.171875 -0.390625,0.40625 0,0.25 0.203125,0.40625 0.390625,0.40625 0.234375,0 0.40625,-0.171875 0.40625,-0.40625 z M 0.40625,-3 v 0.25 c 0.4375,0 0.5,0.046875 0.5,0.390625 v 1.8125 C 0.90625,-0.25 0.84375,-0.25 0.390625,-0.25 V 0 c 0.015625,0 0.5,-0.03125 0.78125,-0.03125 0.25,0 0.5,0.015625 0.734375,0.03125 V -0.25 C 1.5,-0.25 1.4375,-0.25 1.4375,-0.546875 v -2.53125 z m 0,0"
             id="path241" />
        </g>
        <g
           transform="translate(155.845,136.259)"
           id="g244">
          <path
             d="m 3.59375,-2.109375 c 0,-0.609375 -0.296875,-0.96875 -1.046875,-0.96875 -0.578125,0 -0.9375,0.3125 -1.140625,0.6875 v -0.6875 L 0.375,-3 v 0.25 c 0.46875,0 0.53125,0.046875 0.53125,0.390625 v 1.8125 C 0.90625,-0.25 0.828125,-0.25 0.375,-0.25 V 0 C 0.390625,0 0.875,-0.03125 1.171875,-0.03125 1.421875,-0.03125 1.90625,0 1.96875,0 v -0.25 c -0.453125,0 -0.515625,0 -0.515625,-0.296875 V -1.8125 c 0,-0.71875 0.578125,-1.0625 1.03125,-1.0625 0.484375,0 0.546875,0.375 0.546875,0.734375 v 1.59375 C 3.03125,-0.25 2.96875,-0.25 2.515625,-0.25 V 0 C 2.53125,0 3.015625,-0.03125 3.3125,-0.03125 3.5625,-0.03125 4.046875,0 4.109375,0 v -0.25 c -0.453125,0 -0.515625,0 -0.515625,-0.296875 z m 0,0"
             id="path242" />
        </g>
      </g>
      <g
         fill="#000000"
         fill-opacity="1"
         id="g247"
         transform="translate(-149.243,-127.734)">
        <g
           transform="translate(160.03,136.259)"
           id="g246">
          <path
             d="M 1.40625,-2.75 H 2.484375 V -3 H 1.40625 v -1.28125 h -0.25 c 0,0.625 -0.28125,1.3125 -0.953125,1.328125 V -2.75 H 0.84375 v 1.875 c 0,0.78125 0.59375,0.9375 0.984375,0.9375 0.46875,0 0.78125,-0.390625 0.78125,-0.9375 V -1.265625 H 2.375 v 0.375 c 0,0.484375 -0.21875,0.734375 -0.5,0.734375 -0.46875,0 -0.46875,-0.578125 -0.46875,-0.703125 z m 0,0"
             id="path245" />
        </g>
      </g>
    </g>
    <g
       transform="matrix(2.38517,0,0,2.38517,-794.22948,1589.2169)"
       ns1:version="1.9.0"
       ns1:texconverter="pdflatex"
       ns1:pdfconverter="inkscape"
       ns1:text="$a$"
       ns1:preamble="/home/iuribarcelos/.config/inkscape/extensions/textext/default_packages.tex"
       ns1:scale="1.7888804714379716"
       ns1:alignment="middle center"
       ns1:stroke-to-path="0"
       ns1:inkscapeversion="1.3.2"
       id="g253"
       ns1:jacobian_sqrt="2.38517">
      <defs
         id="defs250" />
      <g
         fill="#000000"
         fill-opacity="1"
         id="g252"
         transform="translate(-149.118,-130.359)">
        <g
           transform="translate(148.712,134.765)"
           id="g251">
          <path
             d="M 3.71875,-3.765625 C 3.53125,-4.140625 3.25,-4.40625 2.796875,-4.40625 c -1.15625,0 -2.390625,1.46875 -2.390625,2.921875 0,0.9375 0.546875,1.59375 1.3125,1.59375 0.203125,0 0.703125,-0.046875 1.296875,-0.75 0.078125,0.421875 0.4375,0.75 0.90625,0.75 0.359375,0 0.578125,-0.234375 0.75,-0.546875 0.15625,-0.359375 0.296875,-0.96875 0.296875,-0.984375 0,-0.109375 -0.09375,-0.109375 -0.125,-0.109375 -0.09375,0 -0.109375,0.046875 -0.140625,0.1875 -0.171875,0.640625 -0.34375,1.234375 -0.75,1.234375 -0.28125,0 -0.296875,-0.265625 -0.296875,-0.453125 0,-0.21875 0.015625,-0.3125 0.125,-0.75 C 3.890625,-1.71875 3.90625,-1.828125 4,-2.203125 L 4.359375,-3.59375 c 0.0625,-0.28125 0.0625,-0.296875 0.0625,-0.34375 0,-0.171875 -0.109375,-0.265625 -0.28125,-0.265625 -0.25,0 -0.390625,0.21875 -0.421875,0.4375 z M 3.078125,-1.1875 C 3.015625,-1 3.015625,-0.984375 2.875,-0.8125 2.4375,-0.265625 2.03125,-0.109375 1.75,-0.109375 c -0.5,0 -0.640625,-0.546875 -0.640625,-0.9375 0,-0.5 0.3125,-1.71875 0.546875,-2.1875 0.3125,-0.578125 0.75,-0.953125 1.15625,-0.953125 0.640625,0 0.78125,0.8125 0.78125,0.875 0,0.0625 -0.015625,0.125 -0.03125,0.171875 z m 0,0"
             id="path250" />
        </g>
      </g>
    </g>
    <g
       transform="matrix(2.38517,0,0,2.38517,-1175.5166,1448.0433)"
       ns1:version="1.9.0"
       ns1:texconverter="pdflatex"
       ns1:pdfconverter="inkscape"
       ns1:text="$\\Delta f_\\mathrm{ext}$"
       ns1:preamble="/home/iuribarcelos/.config/inkscape/extensions/textext/default_packages.tex"
       ns1:scale="1.7888804714379716"
       ns1:alignment="middle center"
       ns1:stroke-to-path="0"
       ns1:inkscapeversion="1.3.2"
       id="g268"
       ns1:jacobian_sqrt="2.38517">
      <defs
         id="id-05ee2e22-8626-4b05-a40a-469590088039" />
      <g
         fill="#000000"
         fill-opacity="1"
         id="id-2996fdcb-986b-4347-856d-33c6a7b3a104"
         transform="translate(-149.181,-127.624)">
        <g
           transform="translate(148.712,134.765)"
           id="g7515">
          <path
             d="m 4.40625,-6.953125 c -0.0625,-0.140625 -0.09375,-0.1875 -0.265625,-0.1875 -0.15625,0 -0.1875,0.046875 -0.25,0.1875 l -3.375,6.75 C 0.46875,-0.109375 0.46875,-0.09375 0.46875,-0.078125 0.46875,0 0.53125,0 0.6875,0 h 6.921875 c 0.15625,0 0.21875,0 0.21875,-0.078125 0,-0.015625 0,-0.03125 -0.046875,-0.125 z m -0.578125,0.8125 2.6875,5.390625 h -5.375 z m 0,0"
             id="id-88f6e465-75c9-4417-a305-69f4fa230c8f" />
        </g>
      </g>
      <g
         fill="#000000"
         fill-opacity="1"
         id="id-d0807f70-eb0d-4a0c-8b5e-bc585140d308"
         transform="translate(-149.181,-127.624)">
        <g
           transform="translate(157.015,134.765)"
           id="g267">
          <path
             d="m 3.65625,-3.984375 h 0.859375 c 0.203125,0 0.296875,0 0.296875,-0.203125 0,-0.109375 -0.09375,-0.109375 -0.265625,-0.109375 H 3.71875 L 3.921875,-5.4375 c 0.046875,-0.203125 0.1875,-0.90625 0.25,-1.03125 0.078125,-0.1875 0.25,-0.34375 0.46875,-0.34375 0.03125,0 0.296875,0 0.484375,0.1875 -0.4375,0.03125 -0.546875,0.390625 -0.546875,0.53125 0,0.234375 0.1875,0.359375 0.375,0.359375 C 5.21875,-5.734375 5.5,-5.96875 5.5,-6.34375 c 0,-0.453125 -0.453125,-0.6875 -0.859375,-0.6875 -0.34375,0 -0.96875,0.1875 -1.265625,1.171875 -0.0625,0.203125 -0.09375,0.3125 -0.328125,1.5625 h -0.6875 c -0.203125,0 -0.3125,0 -0.3125,0.1875 0,0.125 0.09375,0.125 0.28125,0.125 h 0.65625 L 2.25,-0.046875 c -0.1875,0.96875 -0.359375,1.875 -0.875,1.875 -0.046875,0 -0.28125,0 -0.484375,-0.1875 C 1.359375,1.609375 1.453125,1.25 1.453125,1.109375 1.453125,0.875 1.265625,0.75 1.078125,0.75 0.8125,0.75 0.53125,0.984375 0.53125,1.359375 c 0,0.4375 0.4375,0.6875 0.84375,0.6875 0.546875,0 0.953125,-0.59375 1.125,-0.96875 0.328125,-0.625 0.546875,-1.828125 0.5625,-1.90625 z m 0,0"
             id="id-01f91875-da3c-4a33-aa08-2df269aff451" />
        </g>
      </g>
      <g
         fill="#000000"
         fill-opacity="1"
         id="id-f723d6b4-419d-49c2-b366-fd01b9808cd5"
         transform="translate(-149.181,-127.624)">
        <g
           transform="translate(161.892,136.259)"
           id="g5794">
          <path
             d="m 3.0625,-1.59375 c 0.15625,0 0.203125,0 0.203125,-0.140625 0,-0.625 -0.34375,-1.375 -1.390625,-1.375 -0.90625,0 -1.609375,0.71875 -1.609375,1.578125 0,0.890625 0.78125,1.59375 1.703125,1.59375 0.9375,0 1.296875,-0.75 1.296875,-0.90625 0,-0.015625 -0.015625,-0.09375 -0.125,-0.09375 -0.09375,0 -0.109375,0.046875 -0.125,0.109375 -0.21875,0.5625 -0.75,0.671875 -1,0.671875 C 1.6875,-0.15625 1.375,-0.296875 1.171875,-0.5625 0.90625,-0.890625 0.90625,-1.3125 0.90625,-1.59375 Z M 0.90625,-1.765625 C 0.984375,-2.75 1.609375,-2.90625 1.875,-2.90625 c 0.859375,0 0.890625,0.96875 0.90625,1.140625 z m 0,0"
             id="id-f8201e66-e1c4-4bcf-9d09-d527edff4836" />
        </g>
        <g
           transform="translate(165.434,136.259)"
           id="g1981">
          <path
             d="m 2.359375,-1.5625 c 0,0 -0.046875,-0.0625 -0.046875,-0.0625 0,-0.03125 0.453125,-0.515625 0.515625,-0.578125 C 3.078125,-2.484375 3.3125,-2.75 3.875,-2.75 V -3 C 3.671875,-2.984375 3.46875,-2.96875 3.28125,-2.96875 3.078125,-2.96875 2.796875,-2.984375 2.59375,-3 v 0.25 c 0.109375,0.015625 0.140625,0.09375 0.140625,0.15625 0,0.015625 0,0.125 -0.109375,0.234375 L 2.140625,-1.8125 1.5625,-2.46875 C 1.484375,-2.546875 1.484375,-2.578125 1.484375,-2.609375 c 0,-0.09375 0.09375,-0.140625 0.1875,-0.140625 V -3 c -0.25,0.015625 -0.515625,0.03125 -0.78125,0.03125 C 0.6875,-2.96875 0.421875,-2.984375 0.21875,-3 v 0.25 c 0.3125,0 0.5,0 0.6875,0.203125 l 0.859375,1 c 0.015625,0.015625 0.0625,0.0625 0.0625,0.078125 0,0.015625 -0.53125,0.59375 -0.59375,0.671875 -0.265625,0.28125 -0.5,0.53125 -1.046875,0.546875 V 0 C 0.390625,-0.015625 0.546875,-0.03125 0.765625,-0.03125 0.96875,-0.03125 1.25,-0.015625 1.453125,0 V -0.25 C 1.375,-0.265625 1.3125,-0.3125 1.3125,-0.40625 1.3125,-0.546875 1.390625,-0.640625 1.5,-0.75 L 2,-1.296875 2.59375,-0.59375 c 0.140625,0.140625 0.140625,0.15625 0.140625,0.203125 0,0.125 -0.15625,0.140625 -0.1875,0.140625 V 0 c 0.0625,0 0.5625,-0.03125 0.78125,-0.03125 C 3.546875,-0.03125 3.78125,-0.015625 4,0 v -0.25 c -0.46875,0 -0.515625,-0.046875 -0.6875,-0.21875 z m 0,0"
             id="id-e363a876-9ced-42e0-aec2-81e42db96150" />
        </g>
        <g
           transform="translate(169.62,136.259)"
           id="g454">
          <path
             d="M 1.40625,-2.75 H 2.484375 V -3 H 1.40625 v -1.28125 h -0.25 c 0,0.625 -0.28125,1.3125 -0.953125,1.328125 V -2.75 H 0.84375 v 1.875 c 0,0.78125 0.59375,0.9375 0.984375,0.9375 0.46875,0 0.78125,-0.390625 0.78125,-0.9375 V -1.265625 H 2.375 v 0.375 c 0,0.484375 -0.21875,0.734375 -0.5,0.734375 -0.46875,0 -0.46875,-0.578125 -0.46875,-0.703125 z m 0,0"
             id="id-93e1dc2b-9a4a-43df-916f-7590727855f5" />
        </g>
      </g>
    </g>
  </g>
</svg>
